<svg width="800" height="450" xmlns="http://www.w3.org/2000/svg">
  <defs>
    <linearGradient id="gradient" x1="0%" y1="0%" x2="100%" y2="100%">
      <stop offset="0%" style="stop-color:#667eea;stop-opacity:1" />
      <stop offset="100%" style="stop-color:#764ba2;stop-opacity:1" />
    </linearGradient>
  </defs>
  <rect width="800" height="450" fill="url(#gradient)"/>
  <rect x="20" y="80" width="760" height="350" fill="white" rx="10"/>
  <text x="400" y="50" font-family="Arial, sans-serif" font-size="28" font-weight="bold" fill="white" text-anchor="middle">FierceAI Dashboard</text>
  
  <!-- Sidebar -->
  <rect x="40" y="100" width="200" height="310" fill="#f8fafc" rx="5"/>
  <text x="50" y="130" font-family="Arial, sans-serif" font-size="14" font-weight="bold" fill="#334155">Navigation</text>
  <rect x="50" y="145" width="180" height="25" fill="#667eea" rx="3"/>
  <text x="60" y="162" font-family="Arial, sans-serif" font-size="12" fill="white">AI Writer</text>
  <rect x="50" y="175" width="180" height="25" fill="#e2e8f0" rx="3"/>
  <text x="60" y="192" font-family="Arial, sans-serif" font-size="12" fill="#64748b">Image Generator</text>
  <rect x="50" y="205" width="180" height="25" fill="#e2e8f0" rx="3"/>
  <text x="60" y="222" font-family="Arial, sans-serif" font-size="12" fill="#64748b">Chat Assistant</text>
  <rect x="50" y="235" width="180" height="25" fill="#e2e8f0" rx="3"/>
  <text x="60" y="252" font-family="Arial, sans-serif" font-size="12" fill="#64748b">Templates</text>
  
  <!-- Main Content Area -->
  <text x="260" y="130" font-family="Arial, sans-serif" font-size="18" font-weight="bold" fill="#1e293b">Welcome to FierceAI</text>
  <rect x="260" y="150" width="500" height="80" fill="#f1f5f9" rx="5"/>
  <text x="270" y="175" font-family="Arial, sans-serif" font-size="14" fill="#475569">Create amazing content with AI</text>
  <text x="270" y="195" font-family="Arial, sans-serif" font-size="12" fill="#64748b">Start generating text, images, and more...</text>
  
  <!-- Feature Cards -->
  <rect x="260" y="250" width="150" height="120" fill="white" stroke="#e2e8f0" rx="5"/>
  <text x="275" y="275" font-family="Arial, sans-serif" font-size="12" font-weight="bold" fill="#334155">AI Writer</text>
  <text x="275" y="295" font-family="Arial, sans-serif" font-size="10" fill="#64748b">Generate articles,</text>
  <text x="275" y="310" font-family="Arial, sans-serif" font-size="10" fill="#64748b">blogs, and copy</text>
  
  <rect x="420" y="250" width="150" height="120" fill="white" stroke="#e2e8f0" rx="5"/>
  <text x="435" y="275" font-family="Arial, sans-serif" font-size="12" font-weight="bold" fill="#334155">Image Gen</text>
  <text x="435" y="295" font-family="Arial, sans-serif" font-size="10" fill="#64748b">Create stunning</text>
  <text x="435" y="310" font-family="Arial, sans-serif" font-size="10" fill="#64748b">visuals and art</text>
  
  <rect x="580" y="250" width="150" height="120" fill="white" stroke="#e2e8f0" rx="5"/>
  <text x="595" y="275" font-family="Arial, sans-serif" font-size="12" font-weight="bold" fill="#334155">Chat AI</text>
  <text x="595" y="295" font-family="Arial, sans-serif" font-size="10" fill="#64748b">Interactive AI</text>
  <text x="595" y="310" font-family="Arial, sans-serif" font-size="10" fill="#64748b">conversations</text>
</svg>